<?xml version="1.0" standalone="no"?>
<!DOCTYPE svg PUBLIC "-//W3C//DTD SVG 20010904//EN"
 "http://www.w3.org/TR/2001/REC-SVG-20010904/DTD/svg10.dtd">
<svg version="1.0" xmlns="http://www.w3.org/2000/svg"
 width="512.000000pt" height="512.000000pt" viewBox="0 0 512.000000 512.000000"
 preserveAspectRatio="xMidYMid meet">
<metadata>
Created by potrace 1.14, written by Peter Selinger 2001-2017
</metadata>
<g transform="translate(0.000000,512.000000) scale(0.100000,-0.100000)"
fill="#000000" stroke="none">
<path d="M2795 4474 c-256 -42 -441 -199 -523 -445 -94 -286 -14 -495 270
-706 l89 -66 -35 -35 -35 -36 -74 71 c-149 141 -332 191 -545 147 -122 -25
-214 -75 -308 -168 -88 -88 -134 -165 -173 -291 -82 -264 12 -489 282 -682
l84 -59 -33 -40 -33 -40 -73 70 c-86 83 -148 119 -254 146 -269 69 -565 -50
-703 -283 -79 -134 -118 -324 -92 -450 28 -134 127 -270 281 -385 43 -33 166
-114 273 -181 208 -129 297 -193 419 -303 126 -113 165 -114 279 -12 92 82
179 143 394 277 304 188 399 266 484 392 75 112 96 185 96 330 0 66 -2 136 -5
154 l-5 35 140 87 c359 224 442 285 539 399 54 62 108 169 127 250 14 60 15
224 1 280 -8 34 -7 36 42 69 28 19 122 79 210 133 87 54 187 119 223 144 144
103 255 232 301 349 64 164 48 377 -41 535 -40 72 -147 183 -217 225 -243 147
-556 116 -750 -74 l-68 -66 -74 71 c-77 74 -148 115 -239 140 -58 15 -205 25
-254 18z m1158 -285 c297 -100 338 -347 98 -602 -59 -63 -187 -165 -195 -156
-6 7 -312 513 -324 536 -10 18 -6 29 33 82 104 142 239 190 388 140z m-951 -5
c25 -8 64 -31 86 -49 49 -42 116 -141 108 -160 -6 -18 -315 -527 -325 -538
-12 -12 -154 88 -205 144 -25 28 -58 76 -73 107 -24 49 -28 69 -28 142 0 76 3
92 33 152 38 77 107 144 192 188 65 34 140 39 212 14z m487 -673 c66 -109 123
-205 126 -212 4 -13 -79 -79 -99 -79 -5 0 -32 22 -61 48 -57 52 -177 116 -238
128 -23 4 -37 11 -35 19 5 19 172 294 179 295 4 0 61 -90 128 -199z m-1290
-155 c25 -30 -35 -82 -68 -61 -18 11 -12 43 11 59 28 20 42 20 57 2z m-165
-19 c8 -13 8 -20 -3 -27 -21 -12 -51 6 -51 31 0 26 37 23 54 -4z m921 -57 c34
-37 -6 -75 -50 -46 -24 16 -33 45 -18 59 13 14 50 7 68 -13z m155 -3 c0 -19
-21 -37 -42 -37 -18 0 -25 29 -11 43 12 12 53 7 53 -6z m208 -23 c2 -11 -5
-31 -15 -43 -33 -41 -68 -1 -47 54 10 24 58 16 62 -11z m-1378 -15 c25 -45
-14 -91 -48 -57 -13 13 -16 60 -5 71 13 14 43 6 53 -14z m399 -18 c19 -12 6
-41 -18 -41 -23 0 -35 15 -27 35 6 17 24 19 45 6z m1099 -74 c3 -21 -1 -27
-17 -27 -21 0 -37 32 -26 50 12 20 40 5 43 -23z m-1680 -14 c3 -22 -22 -48
-38 -38 -14 8 -13 38 2 53 16 16 32 10 36 -15z m1037 2 c0 -22 -31 -33 -47
-17 -17 17 -1 44 24 40 15 -2 23 -10 23 -23z m-580 -14 c57 -25 100 -64 147
-134 31 -45 38 -64 31 -76 -5 -9 -81 -134 -168 -278 l-158 -263 -40 23 c-112
63 -211 170 -248 267 -30 78 -24 184 14 261 37 76 115 151 201 195 64 32 76
35 126 29 30 -4 73 -15 95 -24z m738 -63 c100 -67 176 -127 265 -206 71 -64
89 -75 127 -80 31 -3 45 -9 45 -19 0 -38 -79 -161 -150 -233 -62 -64 -178
-156 -186 -147 -1 1 -77 125 -169 276 -159 261 -166 275 -153 300 20 38 128
151 145 151 8 0 42 -19 76 -42z m-443 -48 c0 -21 -27 -40 -47 -33 -28 10 -5
53 29 53 11 0 18 -7 18 -20z m-882 -22 c18 -18 15 -68 -4 -75 -37 -14 -70 41
-44 73 15 17 32 18 48 2z m1882 -74 c21 -24 1 -69 -30 -69 -20 0 -26 6 -28 28
-6 48 31 74 58 41z m-910 -19 c25 -31 -9 -63 -55 -51 -18 5 -25 13 -25 30 0
36 56 50 80 21z m-1022 -87 c-3 -24 -34 -36 -49 -21 -16 16 2 43 28 43 20 0
24 -4 21 -22z m1977 -54 c18 -19 15 -38 -7 -42 -21 -4 -49 25 -42 43 8 20 29
19 49 -1z m-1089 -18 c28 -22 7 -51 -37 -51 -28 0 -35 4 -37 24 -6 39 37 54
74 27z m258 -49 c8 -21 6 -31 -7 -44 -31 -31 -71 17 -53 63 10 25 49 12 60
-19z m-1046 -4 c3 -17 -3 -26 -23 -33 -32 -12 -65 2 -65 29 0 26 10 32 50 29
28 -2 36 -8 38 -25z m1017 -243 l124 -205 -32 -27 c-66 -56 -70 -56 -127 -5
-65 58 -136 99 -222 127 l-66 22 91 149 c50 82 94 148 99 147 4 -2 64 -95 133
-208z m786 200 c27 -15 24 -48 -5 -56 -36 -9 -60 -1 -64 20 -3 11 4 26 14 33
22 16 29 16 55 3z m-655 -65 c7 -18 -13 -45 -33 -45 -23 0 -28 31 -8 46 24 18
34 18 41 -1z m-496 -31 c21 -24 1 -69 -30 -69 -20 0 -26 6 -28 28 -6 48 31 74
58 41z m-548 -31 c35 -32 8 -94 -33 -73 -22 12 -26 59 -7 78 15 15 18 15 40
-5z m1574 -80 c9 -34 -7 -58 -37 -58 -17 0 -25 6 -27 22 -8 55 51 89 64 36z
m-470 -7 c28 -22 7 -51 -37 -51 -39 0 -53 30 -23 52 23 17 36 16 60 -1z m-678
-8 c21 -21 15 -50 -9 -46 -31 4 -49 35 -29 48 20 13 24 12 38 -2z m-310 -50
c-2 -17 -11 -24 -30 -26 -19 -2 -28 1 -28 10 0 20 21 38 43 38 13 0 18 -6 15
-22z m1088 -3 c8 -20 -13 -45 -37 -45 -24 0 -25 35 -1 49 24 14 32 13 38 -4z
m259 -76 c0 -21 -37 -23 -52 -3 -9 13 -10 21 -1 31 9 11 14 11 32 0 12 -8 21
-21 21 -28z m-2021 5 c34 -34 0 -70 -35 -38 -22 20 -25 40 -6 47 20 9 25 8 41
-9z m180 0 c9 -25 -20 -64 -48 -64 -37 0 -52 25 -32 55 19 29 70 35 80 9z
m754 -72 c30 -38 -10 -76 -52 -49 -28 18 -36 61 -13 70 18 8 50 -3 65 -21z
m926 15 c10 -7 16 -22 14 -33 -2 -15 -12 -19 -43 -19 -31 0 -41 4 -43 19 -4
19 21 46 43 46 6 0 19 -6 29 -13z m-778 -12 c8 -21 -15 -47 -39 -43 -27 4 -32
22 -12 42 21 20 44 21 51 1z m202 -7 c31 -31 -10 -104 -46 -82 -24 15 -27 52
-6 75 20 22 35 24 52 7z m-1380 -24 c32 -22 28 -84 -6 -84 -40 0 -68 60 -40
88 15 15 19 15 46 -4z m417 -49 c0 -13 -8 -21 -24 -23 -28 -4 -46 11 -37 33 9
25 61 16 61 -10z m1083 -27 c20 -20 15 -58 -8 -58 -26 0 -46 36 -29 56 14 17
21 18 37 2z m343 -4 c11 -13 11 -20 -2 -42 -20 -37 -53 -36 -57 1 -2 16 -1 35
2 43 7 19 40 18 57 -2z m-987 -10 c18 -7 22 -39 5 -49 -15 -10 -59 3 -59 18 0
14 19 37 31 37 4 0 14 -3 23 -6z m-1026 -30 c4 -25 -22 -49 -43 -40 -31 12 -9
70 25 64 8 -2 16 -13 18 -24z m453 -11 c60 -27 103 -65 150 -135 l40 -59 -163
-270 c-90 -149 -169 -273 -176 -276 -19 -8 -134 72 -192 133 -74 78 -113 168
-113 258 0 103 29 172 107 250 37 38 86 75 126 95 57 28 72 32 121 28 31 -3
76 -14 100 -24z m884 17 c-3 -5 -12 -7 -20 -3 -21 7 -19 13 6 13 11 0 18 -4
14 -10z m525 -35 c9 -11 10 -19 3 -26 -6 -6 -13 -1 -21 16 -13 28 -2 34 18 10z
m-625 -76 c55 -37 143 -106 195 -152 108 -95 127 -107 169 -107 38 0 38 -6 5
-77 -47 -100 -141 -203 -255 -283 l-56 -39 -168 276 -168 276 19 36 c26 50
132 153 147 145 7 -4 57 -38 112 -75z m215 26 c14 -17 7 -43 -15 -51 -22 -9
-62 3 -68 21 -14 35 57 61 83 30z m-700 -46 c0 -20 -35 -44 -50 -34 -16 10
-11 43 7 53 23 13 43 4 43 -19z m-882 -21 c18 -18 15 -66 -6 -77 -21 -11 -35
-4 -51 27 -22 42 24 83 57 50z m1876 -64 c27 -27 12 -84 -22 -84 -41 0 -55 49
-25 82 20 22 27 22 47 2z m-913 -23 c32 -27 16 -56 -31 -56 -47 0 -63 29 -31
56 13 10 27 19 31 19 4 0 18 -9 31 -19z m-1016 -91 c0 -20 -6 -26 -27 -28 -22
-3 -28 1 -28 15 0 11 6 25 12 31 20 20 43 10 43 -18z m1985 -55 c16 -19 6 -45
-18 -45 -23 0 -42 19 -42 42 0 22 42 25 60 3z m-1089 -21 c20 -24 -1 -49 -41
-49 -40 0 -61 25 -41 49 8 9 26 16 41 16 15 0 33 -7 41 -16z m241 -21 c21 -18
24 -53 6 -71 -35 -35 -82 14 -60 63 13 29 28 31 54 8z m-1044 -5 c31 -31 -6
-76 -53 -64 -32 8 -43 45 -19 63 22 16 56 17 72 1z m1026 -266 c64 -106 117
-197 119 -201 2 -8 -248 -201 -259 -201 -3 0 -29 20 -57 44 -29 23 -85 67
-125 96 -40 29 -72 56 -70 60 2 4 59 101 128 214 95 156 127 203 136 193 6 -6
63 -99 128 -205z m794 196 c20 -20 14 -47 -12 -54 -33 -8 -57 -2 -69 18 -23
35 49 68 81 36z m-658 -67 c0 -24 -25 -45 -45 -37 -15 5 -21 37 -8 49 3 4 17
7 30 7 16 0 23 -6 23 -19z m-509 -11 c33 -18 17 -90 -19 -90 -40 0 -53 39 -26
78 17 25 19 26 45 12z m-531 -51 c15 -26 5 -65 -17 -74 -20 -7 -53 26 -53 54
0 41 52 55 70 20z m1570 -87 c0 -49 -49 -72 -70 -33 -14 28 -13 38 10 61 27
27 60 11 60 -28z m-472 6 c19 -19 14 -36 -13 -54 -23 -15 -27 -15 -50 0 -41
27 -26 66 25 66 14 0 31 -5 38 -12z m-670 -15 c12 -24 4 -43 -17 -43 -22 0
-41 19 -41 42 0 24 46 24 58 1z m-323 -43 c0 -20 -6 -26 -27 -28 -22 -3 -28 1
-28 15 0 11 6 25 12 31 20 20 43 10 43 -18z m1091 -5 c8 -20 -13 -45 -38 -45
-24 0 -34 26 -18 45 16 19 49 19 56 0z m254 -55 c13 -24 5 -40 -19 -40 -24 0
-45 25 -37 45 8 22 43 18 56 -5z m-1179 0 c43 -24 5 -79 -46 -66 -32 8 -43 45
-19 63 22 16 39 16 65 3z m1027 -72 c20 -20 14 -47 -12 -54 -33 -8 -57 -2 -69
18 -23 35 49 68 81 36z m-924 -47 c37 -40 1 -104 -39 -71 -18 15 -20 61 -3 78
16 16 22 15 42 -7z m156 -82 c0 -10 -10 -23 -21 -30 -17 -9 -25 -8 -38 6 -15
15 -14 18 7 35 26 22 52 16 52 -11z m652 6 c9 -19 8 -29 -6 -50 -9 -14 -22
-25 -29 -25 -35 0 -50 56 -21 84 22 23 43 20 56 -9z m-157 -59 c22 -16 14 -46
-13 -46 -25 0 -46 25 -38 45 7 19 26 19 51 1z m-414 -55 c20 -16 22 -23 13
-38 -13 -22 -60 -29 -80 -12 -21 17 -17 48 9 59 31 12 32 12 58 -9z m340 -61
c10 -6 19 -19 19 -28 0 -43 -54 -56 -85 -22 -17 19 -17 21 0 40 20 22 37 25
66 10z"/>
</g>
</svg>
